<?xml version="1.0" standalone="no"?>
<!DOCTYPE svg PUBLIC "-//W3C//DTD SVG 20010904//EN"
 "http://www.w3.org/TR/2001/REC-SVG-20010904/DTD/svg10.dtd">
<svg version="1.0" xmlns="http://www.w3.org/2000/svg"
 width="1963.000000pt" height="463.000000pt" viewBox="0 0 1963.000000 463.000000"
 preserveAspectRatio="xMidYMid meet">

<g transform="translate(0.000000,463.000000) scale(0.100000,-0.100000)"
fill="#000000" stroke="none">
<path d="M7365 3682 c-6 -6 52 -39 128 -73 26 -12 47 -26 47 -30 0 -5 6 -9 14
-9 17 0 106 -49 106 -58 0 -4 -30 -30 -67 -59 -115 -88 -260 -256 -309 -359
-9 -19 -20 -34 -25 -34 -5 0 -9 -6 -9 -14 0 -8 -13 -41 -30 -74 -16 -34 -30
-66 -30 -72 0 -5 -4 -18 -9 -28 -17 -31 -51 -140 -72 -227 -12 -52 -29 -181
-36 -272 l-5 -73 43 -1 c24 -1 105 -3 179 -5 74 -2 167 -5 205 -7 69 -4 273
-9 308 -8 13 1 17 10 17 44 0 93 54 343 84 392 7 11 21 43 32 70 21 57 84 156
126 199 15 17 28 33 28 36 0 15 132 110 191 138 138 65 188 72 527 72 l298 0
71 -44 c40 -24 96 -57 125 -73 29 -15 55 -31 56 -35 2 -5 10 -8 18 -8 8 0 14
-5 14 -11 0 -5 4 -8 9 -5 4 3 9 145 10 315 l1 310 -458 2 c-251 1 -710 3
-1019 4 -309 2 -565 0 -568 -3z m95 -901 c0 -16 -28 -20 -34 -5 -4 9 1 14 14
14 11 0 20 -4 20 -9z"/>
<path d="M1802 3642 c6 -9 36 -36 67 -60 31 -23 85 -64 121 -91 120 -91 120
-91 120 -121 0 -16 -9 -49 -20 -75 -11 -26 -20 -54 -20 -62 0 -9 -11 -41 -24
-72 -20 -46 -50 -130 -124 -341 -3 -8 -16 -44 -29 -80 -13 -36 -32 -90 -43
-120 -10 -30 -33 -93 -50 -140 -18 -47 -50 -139 -71 -205 -22 -66 -46 -133
-54 -150 -13 -30 -69 -188 -151 -430 -24 -71 -49 -140 -54 -152 -24 -56 -31
-75 -71 -193 -43 -128 -104 -254 -242 -497 -26 -45 -47 -84 -47 -87 0 -9 534
-6 565 2 21 6 29 15 28 28 -1 10 5 22 12 27 8 4 12 13 9 21 -3 7 2 19 11 26 8
7 15 25 15 40 0 15 7 33 16 41 9 7 14 22 11 36 -2 13 0 23 5 23 5 0 7 4 4 9
-4 5 -3 11 1 13 14 6 40 72 38 95 -1 13 2 23 7 23 24 0 2 17 -42 33 -27 10
-55 23 -62 30 -7 6 -25 18 -40 26 -72 37 -48 39 472 40 250 1 475 4 498 7 l44
7 -5 46 c-3 25 1 84 8 131 16 109 19 196 5 205 -5 3 -10 16 -10 28 0 12 -7 31
-15 41 -8 11 -15 33 -15 49 0 15 -4 36 -9 45 -5 9 -11 46 -15 81 -3 35 -8 66
-11 69 -2 3 0 11 6 18 8 10 8 22 0 44 -5 17 -8 36 -6 43 11 36 14 77 5 72 -6
-4 -7 3 -1 19 6 13 10 46 11 73 0 26 1 59 3 72 2 22 -7 29 -73 57 -41 18 -88
33 -104 33 -39 1 -88 40 -121 98 -16 26 -42 66 -59 87 -19 25 -30 50 -30 72 0
18 -4 30 -8 28 -4 -3 -8 6 -8 19 0 15 -18 42 -50 74 -55 56 -63 89 -34 145 9
17 13 40 10 54 -5 19 -2 24 14 24 11 0 20 -7 20 -15 0 -9 15 -39 33 -68 19
-29 37 -66 41 -82 8 -33 101 -183 140 -227 57 -64 193 -112 283 -101 51 6 51
6 41 32 -6 14 -23 36 -36 48 -24 20 -25 23 -12 68 7 25 22 57 33 71 13 18 16
28 9 33 -6 3 -9 15 -8 26 3 17 10 20 52 17 27 -2 66 2 86 9 33 11 41 9 81 -14
99 -59 111 -146 30 -223 -46 -44 -36 -66 53 -123 40 -25 78 -57 84 -70 22 -48
80 -127 139 -189 43 -46 61 -73 65 -100 3 -20 8 -46 10 -58 22 -115 29 -207
18 -225 -10 -16 -10 -28 0 -57 7 -20 15 -41 19 -47 3 -5 10 -27 13 -49 6 -32
3 -44 -20 -77 -17 -25 -33 -38 -41 -34 -8 3 -18 5 -23 5 -4 0 -17 21 -29 46
-19 40 -21 52 -12 101 8 40 8 61 -1 76 -6 12 -12 35 -14 52 -1 16 -7 50 -14
75 -6 25 -14 57 -17 73 -3 15 -12 27 -19 27 -17 0 -54 58 -48 74 3 7 -9 24
-25 40 l-29 28 -16 -30 c-9 -17 -16 -39 -16 -50 0 -10 -5 -23 -12 -30 -15 -15
-14 -178 2 -217 7 -16 12 -66 11 -110 -1 -66 -6 -87 -28 -124 -25 -43 -26 -47
-15 -115 7 -39 14 -87 17 -106 4 -19 10 -39 16 -44 5 -6 9 -18 9 -28 0 -9 33
-83 74 -162 79 -152 82 -167 90 -358 l1 -28 398 0 c218 0 397 3 397 6 0 4 -10
23 -22 43 -27 42 -108 198 -168 321 -23 47 -46 93 -51 102 -5 10 -9 27 -9 37
0 11 -4 23 -10 26 -5 3 -10 14 -10 25 0 10 -9 35 -19 57 -23 46 -61 166 -61
192 0 11 -4 21 -8 23 -9 3 -92 235 -92 256 0 7 -9 31 -20 55 -10 23 -40 105
-65 182 -26 77 -52 154 -60 170 -8 17 -37 104 -66 195 -29 91 -55 170 -59 175
-4 6 -10 21 -13 35 -5 27 -52 162 -67 195 -5 11 -39 110 -75 220 -36 110 -72
214 -80 230 -8 17 -25 64 -38 105 -14 41 -30 89 -36 105 -6 17 -16 51 -23 77
-11 42 -16 48 -43 53 -16 2 -279 6 -582 9 -517 5 -552 4 -541 -12z m388 -407
c0 -8 12 -18 27 -21 l27 -7 -44 -39 c-49 -41 -74 -47 -102 -21 -25 23 -23 31
19 69 39 36 73 44 73 19z"/>
<path d="M4234 3639 c-2 -4 49 -33 114 -65 64 -33 119 -62 122 -66 3 -4 27
-16 52 -28 26 -11 48 -26 51 -33 2 -6 -15 -34 -38 -62 -23 -27 -61 -88 -85
-135 -24 -47 -49 -97 -57 -112 -8 -15 -13 -30 -13 -33 2 -5 -3 -30 -17 -95 -5
-19 -8 -96 -8 -170 0 -117 3 -143 23 -194 33 -86 99 -211 154 -292 26 -39 48
-75 48 -81 0 -6 -35 -33 -77 -61 -86 -55 -216 -182 -261 -253 -30 -47 -44 -76
-80 -164 -23 -58 -45 -214 -38 -265 22 -149 37 -197 86 -286 28 -50 101 -150
140 -192 78 -84 284 -206 410 -241 25 -7 54 -17 65 -22 24 -9 63 -15 210 -29
135 -13 415 5 525 35 14 3 45 11 70 17 108 26 197 59 349 130 84 40 114 43
143 15 12 -12 62 -42 183 -107 28 -15 66 -36 86 -48 20 -11 45 -24 55 -30 11
-5 38 -19 60 -31 65 -33 74 -29 124 50 25 39 52 79 61 88 9 10 40 53 69 97 29
43 57 81 61 82 5 2 9 10 9 17 0 7 17 35 38 62 45 58 72 99 72 111 0 5 -35 26
-77 48 -43 21 -100 51 -126 67 -26 15 -52 27 -58 27 -5 0 -31 15 -57 34 -27
18 -58 36 -69 40 -33 10 -34 31 -10 109 37 114 47 163 47 230 0 50 -4 66 -20
80 -11 9 -23 17 -26 17 -2 0 -17 8 -32 18 -15 11 -45 30 -67 44 -22 14 -92 60
-156 102 -64 42 -119 76 -123 76 -3 0 -6 -19 -7 -42 -1 -92 -66 -308 -93 -308
-4 0 -31 17 -60 37 -51 38 -63 47 -120 93 -17 14 -51 41 -76 60 -25 19 -69 56
-98 84 -28 27 -68 61 -87 74 -19 14 -35 29 -35 33 0 5 17 18 38 29 279 154
450 334 510 540 7 25 15 108 19 185 5 127 3 147 -17 215 -46 150 -101 241
-203 337 -63 59 -172 123 -208 123 -10 0 -20 4 -23 9 -16 25 -175 32 -809 34
-363 1 -661 -1 -663 -4z m1168 -470 c162 -35 250 -139 228 -272 -15 -97 -61
-165 -148 -222 -59 -39 -243 -124 -256 -119 -18 7 -114 147 -137 199 -45 102
1 268 98 356 74 66 120 78 215 58z m-403 -1351 c58 -55 98 -92 206 -187 17
-14 55 -47 85 -71 30 -25 71 -59 90 -77 19 -17 62 -52 95 -76 33 -25 71 -54
85 -65 l24 -19 -29 -15 c-38 -19 -207 -63 -302 -79 -121 -20 -315 7 -417 58
-78 40 -153 117 -171 176 -20 66 -19 92 4 160 21 61 58 116 105 157 43 37 137
100 150 100 6 0 40 -28 75 -62z"/>
<path d="M10045 3110 c-22 -5 -119 -8 -215 -7 -195 1 -242 -10 -262 -62 -11
-30 -17 -551 -6 -557 4 -3 4 -15 -1 -27 -4 -12 -8 -303 -10 -647 -1 -600 -1
-626 18 -656 13 -22 32 -34 66 -44 26 -7 55 -13 64 -12 52 5 97 0 110 -13 14
-13 17 -13 29 7 7 13 11 15 8 6 -5 -17 12 -28 42 -28 14 0 15 2 3 9 -11 7 -7
13 20 24 19 8 38 11 43 6 5 -4 21 2 36 14 15 12 35 27 44 32 14 9 16 32 15
165 -1 250 -1 519 1 601 1 42 -3 86 -9 97 -7 14 -8 23 -1 27 16 10 11 53 -7
64 -14 8 -15 12 -4 25 17 20 27 161 12 170 -7 4 -4 18 9 40 15 27 17 41 9 72
-15 64 -14 315 1 324 8 5 6 9 -4 13 -19 7 -22 77 -5 94 8 8 8 17 -1 33 -8 15
-9 30 -2 48 13 33 12 92 0 92 -5 0 -8 15 -6 33 3 32 4 32 52 28 23 -2 45 -29
39 -50 -3 -10 0 -22 7 -26 8 -5 8 -10 0 -20 -8 -9 -8 -15 0 -20 14 -9 13 -35
-4 -67 -10 -19 -11 -28 -3 -31 14 -4 19 -68 6 -83 -5 -7 -5 -32 1 -64 8 -44 7
-56 -6 -71 -11 -12 -12 -18 -3 -21 14 -5 21 -75 8 -84 -6 -3 -6 -10 -1 -17 9
-11 9 -115 0 -202 -3 -22 -2 -67 2 -100 5 -41 3 -70 -6 -91 -11 -25 -11 -38
-1 -64 10 -27 9 -34 -1 -38 -8 -2 -10 -8 -3 -15 13 -17 17 -50 8 -64 -5 -7 -5
-19 0 -25 9 -15 5 -66 -7 -88 -5 -9 -3 -23 6 -34 7 -10 10 -24 7 -30 -4 -6 -6
-39 -5 -74 2 -42 -1 -61 -8 -57 -5 3 -10 1 -10 -4 0 -6 5 -11 10 -11 13 0 13
-87 0 -95 -6 -4 -7 -12 -3 -18 17 -28 19 -187 3 -217 -9 -16 -9 -25 -1 -33 12
-12 15 -106 3 -122 -29 -40 -100 -63 -199 -65 -15 0 -20 -5 -16 -19 6 -25 -30
-30 -257 -37 -102 -4 -187 -8 -190 -10 -5 -6 -27 64 -45 146 -14 67 -36 150
-79 305 -14 50 -26 104 -26 121 0 36 -27 55 -36 26 -6 -19 -19 -45 -77 -152
-22 -41 -48 -90 -57 -108 l-17 -34 -29 33 c-16 17 -39 43 -51 56 -13 13 -23
28 -23 33 0 5 -9 14 -20 20 -11 6 -20 17 -20 25 0 8 -4 15 -9 15 -4 0 -30 28
-56 63 -27 34 -53 67 -60 72 -6 6 -16 17 -21 26 -5 9 -26 36 -46 60 -44 52
-190 228 -267 323 -30 36 -61 67 -68 67 -16 2 -23 4 -43 12 -8 3 -28 7 -45 9
-24 2 -30 9 -36 35 -3 18 -12 40 -19 48 -18 22 -63 18 -95 -6 -26 -22 -29 -22
-188 -10 -255 18 -479 29 -764 35 -224 5 -275 -1 -294 -35 -15 -29 -21 -87
-14 -137 5 -34 13 -47 38 -63 18 -11 42 -18 55 -16 16 3 22 -1 22 -14 0 -23
29 -178 38 -199 3 -8 7 -26 8 -40 3 -30 25 -101 35 -115 4 -5 10 -26 14 -45 8
-39 107 -250 127 -271 7 -8 19 -25 26 -39 21 -41 156 -197 198 -230 21 -17 44
-36 49 -43 19 -23 168 -114 237 -145 49 -22 157 -55 238 -72 73 -15 256 -20
923 -23 557 -3 558 -3 552 18 -11 35 -26 99 -29 122 -1 13 -6 26 -9 30 -4 3
-7 20 -7 37 l0 31 213 3 c126 1 213 6 215 12 2 6 9 10 16 10 7 0 22 14 35 30
21 30 24 31 74 24 105 -14 193 -10 215 9 12 11 32 17 49 16 15 -2 34 0 41 5
18 11 117 9 141 -3 27 -15 147 -14 170 1 15 9 25 9 46 0 44 -20 57 -16 50 17
-6 27 -4 29 37 34 24 3 62 9 86 13 29 5 51 2 68 -7 20 -10 34 -11 70 -1 59 16
89 15 104 -3 12 -15 34 -17 125 -14 22 1 47 1 55 0 8 -1 44 -4 80 -7 37 -3 70
-11 76 -19 12 -16 86 -19 159 -7 37 6 58 4 79 -6 27 -13 31 -13 43 4 17 23
134 37 189 22 22 -6 84 -12 139 -13 55 -2 116 -5 135 -7 19 -2 48 3 64 12 27
14 29 14 43 -8 12 -18 25 -22 63 -22 30 0 52 -6 60 -15 15 -18 92 -20 173 -4
51 10 60 10 77 -6 24 -22 40 -12 40 27 l0 31 75 -6 c41 -3 107 0 147 7 98 16
213 9 260 -15 10 -5 58 -11 107 -12 57 -2 96 -9 106 -17 12 -10 52 -14 136
-15 66 -1 122 -4 125 -8 3 -3 24 4 46 15 35 19 49 20 126 14 153 -13 245 -13
280 1 18 8 37 11 42 8 5 -3 20 0 34 6 19 9 32 9 56 -1 23 -10 34 -10 43 -1 16
16 55 14 101 -8 54 -25 116 -32 187 -20 49 8 63 7 84 -7 30 -19 48 -10 42 22
-5 28 -10 27 123 23 52 -1 104 -2 115 -1 75 7 105 11 123 16 13 4 31 1 45 -9
22 -14 30 -14 82 -1 49 13 62 13 90 2 17 -8 44 -12 57 -9 28 5 78 -22 78 -42
0 -23 165 -35 198 -14 14 9 26 8 50 -5 36 -19 52 -14 52 13 0 19 14 23 93 23
131 0 165 -3 177 -17 14 -17 91 -20 107 -4 13 13 235 19 282 7 81 -21 160 -28
218 -19 47 7 61 6 75 -6 22 -20 51 -9 44 15 -5 15 3 23 33 36 42 19 82 18 179
-5 43 -11 60 -11 95 0 51 15 163 32 232 35 73 3 77 6 71 88 l-6 70 43 -7 c23
-3 64 -11 90 -18 65 -15 150 3 190 40 39 38 62 82 48 96 -14 14 -69 -10 -76
-34 -4 -11 -11 -17 -16 -14 -5 4 -9 2 -9 -4 0 -18 -39 -23 -55 -7 -19 19 -19
26 1 26 18 0 85 38 96 54 4 6 16 12 28 12 11 1 28 2 39 3 15 1 19 12 24 63 3
35 2 67 -3 73 -10 12 -8 40 3 51 11 11 8 52 -3 59 -7 4 -6 13 1 27 8 14 8 23
0 31 -6 6 -11 18 -11 27 0 13 1 13 10 0 8 -12 10 -11 10 8 0 12 -5 22 -11 22
-8 0 -8 4 0 14 15 18 4 201 -14 237 -14 27 -69 59 -100 59 -21 0 -105 -40
-102 -49 1 -3 -4 -16 -11 -28 -6 -12 -9 -29 -6 -38 4 -10 1 -21 -7 -26 -10 -6
-10 -9 -1 -9 6 0 12 -10 12 -22 0 -16 -3 -19 -8 -10 -6 8 -9 2 -9 -17 0 -17 4
-28 8 -25 4 2 10 -5 14 -16 4 -11 11 -18 16 -15 5 4 16 -1 25 -9 8 -9 25 -16
37 -17 63 -1 107 -6 114 -12 3 -4 8 -28 9 -53 1 -25 3 -57 4 -72 5 -66 0 -113
-11 -106 -8 4 -8 1 -2 -12 5 -11 8 -26 7 -34 -1 -8 -2 -28 -3 -44 0 -16 -4
-27 -7 -23 -4 3 -21 -1 -38 -11 -44 -24 -234 -23 -290 1 -21 9 -46 17 -56 17
-9 0 -25 9 -35 20 -10 11 -24 20 -31 20 -19 0 -129 125 -164 186 -16 29 -30
65 -30 78 0 14 -4 28 -10 31 -6 4 -10 56 -10 124 0 99 4 129 24 183 46 129
149 242 275 304 120 59 129 61 281 70 70 5 103 1 184 -20 55 -14 102 -29 105
-33 3 -5 18 -16 32 -25 23 -15 26 -15 37 0 10 16 11 16 11 0 1 -26 37 -58 65
-58 28 0 42 -26 24 -47 -10 -13 -9 -15 7 -11 21 4 55 -38 55 -68 0 -14 3 -14
16 -4 12 11 15 11 12 -1 -2 -8 -7 -17 -13 -21 -6 -5 -5 -8 3 -8 7 0 12 -13 12
-30 0 -18 5 -30 13 -30 9 0 14 -17 16 -54 2 -43 -2 -57 -16 -64 -16 -9 -15
-11 7 -16 14 -3 37 -7 52 -9 16 -2 35 -12 43 -22 11 -15 14 -16 15 -5 0 21 34
40 59 33 11 -3 21 -1 21 5 0 5 -9 12 -21 15 -39 10 -15 32 34 30 56 -1 56 22
-1 30 -54 7 -114 24 -146 41 -26 13 -27 15 -10 24 11 6 56 8 102 5 77 -5 83
-4 80 13 -3 16 3 19 42 17 131 -4 172 -3 188 6 14 8 14 11 2 12 -8 0 -26 2
-40 3 -14 1 -37 3 -52 4 -16 1 -28 7 -28 12 0 6 6 10 13 8 20 -4 67 12 67 22
0 5 18 13 39 16 27 4 38 10 34 20 -8 22 6 35 26 22 20 -12 51 -5 51 11 0 12
-52 41 -73 41 -14 0 -77 52 -77 63 0 12 75 29 106 24 18 -3 36 -1 39 4 6 8 -8
13 -27 10 -15 -2 -58 19 -58 29 0 15 53 12 76 -4 17 -13 21 -13 35 5 10 13 30
22 55 25 67 6 114 15 114 23 0 4 -6 13 -12 19 -10 10 -8 14 10 18 12 4 22 10
22 14 0 15 -33 20 -150 25 -62 2 -118 9 -124 15 -5 5 -18 10 -28 10 -23 0 -24
20 0 21 9 1 20 1 25 0 4 0 7 8 7 19 0 17 -8 19 -67 22 -55 2 -68 6 -71 20 -2
12 6 20 25 25 26 7 26 8 -17 15 -89 14 -110 20 -110 33 0 8 23 14 65 18 72 7
105 20 105 42 0 8 9 15 20 15 11 0 20 5 20 11 0 7 -11 8 -30 4 -16 -4 -30 -3
-30 2 0 4 -11 9 -25 9 -43 3 -57 12 -50 34 5 16 2 20 -18 20 -14 0 -27 6 -30
14 -5 14 48 26 114 26 16 0 29 4 29 10 0 5 -15 9 -32 9 -18 -1 -91 4 -163 12
-71 7 -231 12 -355 11 -124 0 -272 0 -330 0 -120 2 -468 -1 -627 -4 -60 -1
-164 0 -233 3 -69 3 -143 1 -165 -4 -22 -5 -148 -10 -280 -12 -132 -1 -280 -6
-330 -10 -102 -8 -114 0 -15 10 85 9 89 15 9 15 -35 1 -203 3 -374 5 -260 4
-315 2 -341 -10 -26 -12 -56 -13 -170 -6 -129 7 -344 7 -474 -1 -70 -4 -478
12 -661 26 -74 6 -89 5 -104 -10 -12 -12 -30 -16 -63 -14 -26 2 -72 2 -102 0
-142 -7 -323 -3 -510 13 -175 15 -310 20 -445 17 -192 -6 -368 -2 -374 8 -4 8
-72 14 -197 18 -171 5 -192 4 -197 -10 -6 -14 -32 -16 -214 -16 -117 0 -223
-4 -243 -10 -38 -11 -289 -5 -381 9 -62 10 -182 5 -219 -9 -47 -17 -83 -16
-103 5 -11 11 -23 12 -49 5 -19 -6 -68 -10 -109 -9 -40 0 -82 0 -93 -1 -10 0
-28 8 -40 18 -19 18 -50 32 -86 38 -66 13 -111 14 -148 6 -45 -11 -89 -3 -149
24 -33 15 -132 17 -198 4z m1145 -99 c0 -15 -103 -20 -130 -5 -23 12 -18 13
53 14 42 0 77 -4 77 -9z m1960 -1 c0 -17 -45 -22 -89 -10 -22 6 -41 13 -41 15
0 3 29 5 65 5 36 0 65 -4 65 -10z m-1906 -6 c12 -5 14 -10 6 -19 -13 -16 -50
-8 -50 11 0 15 18 18 44 8z m1723 0 c-3 -3 -12 -4 -19 -1 -8 3 -5 6 6 6 11 1
17 -2 13 -5z m40 0 c-3 -3 -12 -4 -19 -1 -8 3 -5 6 6 6 11 1 17 -2 13 -5z
m5038 -5 c-8 -12 -82 -12 -89 0 -3 5 17 9 44 9 29 1 48 -3 45 -9z m289 -18 c3
-5 -4 -11 -17 -15 -29 -7 -98 4 -91 15 7 12 101 12 108 0z m-5385 -68 c39 -17
85 -62 107 -105 40 -77 3 -183 -80 -232 -59 -34 -170 -38 -206 -6 -13 11 -26
20 -30 20 -4 0 -20 19 -36 43 -32 48 -38 119 -14 177 38 91 169 144 259 103z
m2609 -19 c23 -15 42 -31 42 -35 0 -4 6 -14 13 -21 15 -17 37 -55 37 -65 0 -5
-4 -2 -9 6 -6 9 -9 -8 -8 -47 2 -68 -11 -93 -77 -146 -34 -28 -44 -30 -129
-34 -89 -4 -93 -3 -116 22 -14 14 -29 26 -35 26 -31 0 -67 126 -52 184 8 31
88 114 126 130 15 6 59 11 96 10 57 -1 76 -6 112 -30z m-4693 -25 c105 -26
150 -49 216 -112 93 -89 132 -149 154 -237 27 -107 19 -298 -15 -330 -3 -3
-11 -22 -19 -44 -24 -71 -112 -156 -191 -187 -30 -12 -59 -26 -65 -30 -5 -4
-44 -10 -85 -14 -41 -3 -88 -8 -105 -10 -68 -7 -68 -8 -67 186 1 96 1 180 1
187 1 6 10 12 22 12 36 0 90 32 101 59 16 42 -6 97 -44 110 -66 23 -122 6
-137 -43 -6 -18 -11 -233 -13 -508 -2 -262 -6 -480 -9 -483 -8 -7 -406 -11
-414 -3 -7 7 -7 987 0 999 3 4 10 31 15 61 16 84 65 173 129 237 69 67 198
137 271 147 28 4 50 10 50 13 0 15 130 9 205 -10z m1209 3 c2 -4 1 -14 -4 -21
-10 -17 -31 -5 -23 14 6 16 19 20 27 7z m2769 -28 c13 -4 14 -35 11 -203 -3
-152 -1 -198 9 -198 6 0 47 -2 89 -3 l77 -3 6 -38 c4 -21 4 -42 2 -46 -12 -18
-10 -138 2 -136 14 4 14 -3 0 -29 -6 -11 -11 -51 -10 -89 1 -82 -5 -87 -94
-85 -33 1 -66 0 -72 -2 -15 -5 -15 -97 0 -127 6 -11 13 -26 16 -33 3 -8 11
-14 16 -15 6 -1 18 -8 28 -17 9 -8 38 -17 63 -20 l46 -5 -1 -123 c-1 -85 2
-128 10 -138 9 -11 9 -18 1 -26 -7 -7 -12 -38 -12 -70 l0 -58 -74 0 c-43 0
-89 6 -110 15 -19 8 -39 14 -43 14 -13 -3 -101 40 -148 72 -85 58 -185 197
-185 258 0 11 -4 21 -9 23 -24 8 -31 152 -31 587 0 249 3 464 6 477 l6 24 193
0 c106 0 200 -3 208 -6z m-2790 -384 c99 -22 171 -64 247 -141 41 -43 95 -132
105 -176 3 -10 10 -38 16 -63 14 -51 19 -653 6 -666 -5 -6 -331 -10 -390 -5
-5 1 -7 117 -6 259 2 336 4 316 -31 355 -43 50 -82 63 -137 49 -57 -16 -113
-66 -113 -103 0 -15 -5 -31 -11 -35 -8 -4 -8 -9 0 -17 6 -6 11 -21 11 -33 0
-71 119 -127 195 -92 22 10 28 9 36 -3 10 -15 12 -331 3 -366 -7 -27 -31 -36
-98 -35 -99 0 -202 27 -284 74 -78 44 -168 139 -202 213 -50 109 -52 119 -58
213 -7 131 16 225 83 342 36 63 194 200 231 200 7 0 14 5 14 11 0 5 4 8 9 5 5
-3 25 1 44 9 19 8 70 17 113 21 44 4 81 8 83 10 4 4 7 4 134 -26z m1850 1 c97
-25 122 -39 191 -102 59 -54 121 -148 130 -196 2 -15 10 -53 16 -83 6 -34 10
-158 9 -320 -2 -308 -3 -347 -13 -357 -9 -9 -379 -4 -388 5 -4 4 -9 151 -10
326 l-3 319 -26 20 c-23 17 -32 18 -61 8 -30 -10 -36 -18 -47 -60 -7 -29 -12
-102 -11 -178 1 -70 1 -199 1 -285 l-1 -158 -194 0 c-168 0 -195 2 -200 16 -3
9 -6 154 -6 322 0 262 3 317 18 372 26 95 65 164 132 229 125 123 289 166 463
122z m2584 0 c59 -11 146 -51 182 -84 21 -19 23 -19 18 -4 -4 11 -3 16 3 12 6
-3 10 -13 10 -21 0 -8 4 -13 9 -9 5 3 12 -4 16 -15 3 -11 15 -20 26 -20 10 0
18 -3 18 -7 -1 -5 -1 -19 0 -33 1 -18 4 -21 10 -11 6 9 11 10 15 2 4 -6 4 -16
1 -21 -3 -6 1 -13 9 -16 9 -3 16 -14 16 -23 0 -14 2 -14 11 -1 7 11 8 6 4 -19
-5 -23 -4 -31 4 -27 7 5 11 -9 11 -43 0 -28 5 -51 10 -51 6 0 10 -7 10 -15 0
-8 -5 -15 -10 -15 -7 0 -7 -7 1 -21 10 -20 9 -193 -2 -203 -8 -9 3 -126 12
-120 5 3 9 1 9 -5 0 -5 -5 -11 -12 -13 -8 -3 -11 -46 -11 -145 1 -134 0 -141
-21 -150 -12 -6 -102 -8 -213 -5 -159 4 -193 7 -198 20 -3 8 -5 153 -5 322 0
284 -2 310 -18 331 -21 25 -76 29 -98 7 -14 -14 -15 -32 -15 -343 0 -232 -4
-304 -19 -319 -16 -16 -388 -16 -402 1 -6 8 -10 126 -9 340 2 303 8 387 30
418 4 6 14 26 21 45 30 77 143 190 226 226 21 9 47 20 56 25 10 5 30 9 45 10
16 0 37 5 48 10 23 10 124 5 202 -10z m-3525 -1 l109 0 -3 -527 -3 -528 -202
0 -201 -1 -5 36 c-8 56 2 1003 10 1011 8 8 146 17 171 12 8 -2 63 -3 124 -3z
m2668 -19 c0 -10 7 -21 15 -25 8 -3 15 -10 15 -15 0 -6 -6 -8 -12 -6 -15 6
-17 -62 -3 -85 5 -9 4 -11 -3 -6 -9 5 -12 -21 -12 -96 0 -70 3 -98 10 -88 8
12 10 9 10 -13 0 -16 -4 -26 -10 -22 -13 8 -13 -155 0 -189 5 -14 6 -26 2 -26
-9 0 -7 -84 2 -99 4 -6 3 -19 -2 -28 -6 -10 -10 -89 -10 -177 0 -91 -4 -162
-10 -168 -13 -13 -394 -11 -402 3 -4 5 -6 202 -5 437 4 654 1 601 28 612 12 5
104 9 205 9 172 1 182 0 182 -18z m-4860 -25 c0 -2 -8 -10 -17 -17 -16 -13
-17 -12 -4 4 13 16 21 21 21 13z m7803 -33 c-7 -2 -21 -2 -30 0 -10 3 -4 5 12
5 17 0 24 -2 18 -5z m-230 -214 c21 0 21 -1 2 -9 -27 -12 -75 -12 -75 -1 0 12
21 21 38 15 8 -2 23 -4 35 -5z m-9890 -103 c27 -14 77 -60 77 -71 0 -4 12 -22
28 -39 15 -18 36 -44 47 -58 11 -15 36 -43 56 -65 19 -21 35 -40 35 -43 -1 -3
21 -27 47 -55 26 -27 50 -58 53 -68 3 -9 10 -15 15 -12 5 4 9 2 9 -4 0 -5 9
-20 20 -33 11 -12 41 -50 67 -83 64 -80 80 -99 133 -159 89 -101 83 -85 50
-137 l-29 -47 -278 3 c-279 2 -387 12 -453 41 -73 33 -87 40 -157 88 -72 48
-110 87 -171 177 -41 61 -95 172 -111 229 -8 25 -17 54 -22 65 -22 53 -43 184
-31 200 4 6 34 11 67 12 33 1 117 5 186 9 123 7 127 6 138 -15 26 -48 111 -12
111 48 0 20 6 31 18 34 22 6 67 -2 95 -17z m7214 -42 c-3 -3 -12 -4 -19 -1 -8
3 -5 6 6 6 11 1 17 -2 13 -5z m1628 -674 c3 -5 1 -10 -4 -10 -6 0 -11 5 -11
10 0 6 2 10 4 10 3 0 8 -4 11 -10z m40 0 c3 -5 -1 -10 -10 -10 -9 0 -13 5 -10
10 3 6 8 10 10 10 2 0 7 -4 10 -10z m-8090 -194 c50 -62 43 -67 -9 -8 -42 47
-61 75 -49 71 6 -2 32 -30 58 -63z m116 -136 c11 0 17 -5 14 -10 -8 -13 -45 6
-44 23 0 9 2 9 6 0 2 -7 14 -13 24 -13z m72 -17 c-7 -2 -19 -2 -25 0 -7 3 -2
5 12 5 14 0 19 -2 13 -5z"/>
<path d="M16272 1810 c0 -14 2 -19 5 -12 2 6 2 18 0 25 -3 6 -5 1 -5 -13z"/>
<path d="M16272 1705 c0 -16 2 -22 5 -12 2 9 2 23 0 30 -3 6 -5 -1 -5 -18z"/>
<path d="M16271 1594 c0 -11 3 -14 6 -6 3 7 2 16 -1 19 -3 4 -6 -2 -5 -13z"/>
<path d="M18475 1949 c-27 -5 -59 -14 -70 -20 -14 -7 -29 -7 -47 0 -25 9 -38
9 -140 -5 -46 -6 -68 -24 -30 -24 9 0 25 -7 35 -14 18 -14 17 -14 -2 -21 -12
-3 -24 -17 -27 -31 -3 -13 -10 -24 -15 -24 -5 0 -9 -5 -9 -11 0 -6 7 -9 15 -5
16 6 20 -5 6 -20 -11 -12 -1 -135 10 -128 5 3 9 -4 9 -15 0 -12 -4 -21 -9 -21
-4 0 -11 -35 -14 -77 -3 -43 -9 -94 -13 -113 -6 -34 -6 -34 10 -15 16 19 16
18 1 -14 -14 -27 -14 -38 -5 -61 13 -32 5 -54 -16 -46 -8 3 -14 -1 -14 -9 0
-7 -9 -17 -20 -20 -11 -4 -18 -10 -15 -15 3 -5 0 -21 -6 -37 -6 -15 -10 -30
-9 -32 1 -2 -4 -8 -12 -12 -10 -7 -10 -9 0 -9 8 0 6 -6 -5 -19 -10 -10 -20
-18 -23 -18 -24 -2 -30 -5 -30 -18 0 -8 1 -15 3 -15 2 0 30 5 63 11 61 11 119
33 129 49 3 6 31 10 61 10 39 0 56 4 60 15 5 12 24 15 85 15 68 0 88 4 128 27
2 2 -2 9 -8 17 -10 11 -8 18 10 35 26 24 26 24 -66 26 -106 4 -180 20 -213 46
-57 44 -33 69 67 69 33 0 80 18 56 21 -5 1 -14 2 -20 4 -5 1 -27 3 -48 3 -24
1 -40 8 -44 17 -7 21 -2 25 39 32 18 3 38 9 44 14 6 5 22 9 35 10 103 3 120 6
140 26 17 16 19 25 10 40 -12 23 -6 33 21 33 10 0 18 5 18 11 0 7 -11 9 -27 6
-30 -6 -83 19 -83 39 0 8 17 11 49 11 35 -2 55 3 69 17 18 15 26 17 53 7 18
-6 45 -11 62 -11 l30 0 -39 31 c-22 17 -39 36 -39 42 0 6 17 16 37 22 20 5 40
13 44 18 4 4 16 7 27 7 14 0 18 5 14 20 -3 11 -1 18 4 14 5 -3 9 4 9 16 0 12
-4 19 -9 16 -5 -3 -11 3 -14 13 -4 15 -13 19 -37 19 -20 -1 -38 5 -45 16 -9
11 -31 18 -72 20 -33 2 -69 9 -81 15 -11 6 -22 10 -24 10 -2 -1 -25 -5 -53
-10z m152 -205 c-3 -3 -12 -4 -19 -1 -8 3 -5 6 6 6 11 1 17 -2 13 -5z m-407
-408 c0 -3 -4 -8 -10 -11 -5 -3 -10 -1 -10 4 0 6 5 11 10 11 6 0 10 -2 10 -4z"/>
</g>
</svg>
